<svg width="1116" height="953" viewBox="0 0 1116 953" fill="none" xmlns="http://www.w3.org/2000/svg">
<path d="M612.23 0.498782C613.27 0.493247 614.311 0.487713 615.383 0.482011C618.875 0.46838 622.366 0.483388 625.858 0.498278C628.36 0.494496 630.862 0.488996 633.364 0.481906C639.461 0.46937 645.558 0.475538 651.655 0.490581C658.769 0.507463 665.884 0.504228 672.998 0.500487C685.711 0.494606 698.423 0.508783 711.136 0.533434C723.437 0.557285 735.738 0.564467 748.039 0.553942C761.451 0.542488 774.862 0.540664 788.274 0.55504C789.71 0.556566 791.146 0.558086 792.581 0.559601C793.287 0.560359 793.994 0.561117 794.721 0.561898C799.664 0.566612 804.606 0.564809 809.549 0.560536C816.232 0.555044 822.914 0.566028 829.597 0.587491C832.037 0.593009 834.477 0.59357 836.917 0.588538C854.45 0.556941 871.785 1.18404 888.5 7.06249C889.36 7.35776 890.219 7.65304 891.105 7.95726C909.383 14.5109 924.927 24.7102 939 38C939.8 38.7244 940.601 39.4489 941.426 40.1953C965.306 62.6666 978.029 95.7717 979.25 128.187C980.001 164.86 967.215 198.342 942 225C941.19 225.886 940.381 226.771 939.547 227.684C928.025 239.844 914.155 248.105 899 255C898.107 255.422 897.213 255.843 896.293 256.277C893.594 257.128 892.633 256.948 890 256C888.19 254.564 888.19 254.564 886.333 252.705C885.633 252.011 884.932 251.317 884.21 250.602C883.093 249.47 883.093 249.47 881.953 248.316C881.182 247.546 880.411 246.775 879.616 245.981C877.989 244.351 876.365 242.718 874.745 241.081C872.254 238.567 869.751 236.067 867.246 233.568C865.668 231.985 864.092 230.401 862.516 228.816C861.763 228.064 861.009 227.312 860.234 226.537C859.546 225.84 858.858 225.143 858.149 224.424C857.54 223.81 856.93 223.195 856.302 222.562C855 221 855 221 855 219C856.16 218.769 857.32 218.539 858.516 218.301C882.648 213.336 903.383 202.489 917.736 181.93C930.421 162.56 935.332 139.253 931.316 116.359C926.437 93.8395 913.473 73.7418 894.125 61.125C877.55 50.8145 860.089 46.9358 840.787 46.7947C839.927 46.7848 839.067 46.7749 838.181 46.7647C835.379 46.7334 832.576 46.7084 829.773 46.6836C827.815 46.663 825.856 46.642 823.897 46.6206C818.772 46.5657 813.646 46.5162 808.52 46.4678C802.354 46.4084 796.188 46.3424 790.022 46.2775C780.681 46.1799 771.341 46.0907 762 46C762 72.73 762 99.46 762 127C759.69 125.02 757.38 123.04 755 121C753.574 119.804 752.146 118.61 750.717 117.418C716.132 88.1956 716.132 88.1956 714.504 72.2617C713.786 63.3549 715.695 54.8623 717 46C689.775 46.495 689.775 46.495 662 47C667.675 52.6708 673.35 58.3415 679.198 64.1842C716.655 101.613 754.112 139.043 791.563 176.478C792.201 177.116 792.84 177.755 793.498 178.413C807.375 192.284 821.252 206.155 835.129 220.026C841.933 226.829 848.738 233.631 855.542 240.433C856.22 241.11 856.897 241.786 857.594 242.484C879.563 264.444 901.535 286.401 923.508 308.356C946.08 330.908 968.648 353.464 991.211 376.024C994.395 379.206 997.578 382.389 1000.76 385.572C1001.7 386.511 1001.7 386.511 1002.66 387.47C1012.77 397.574 1022.88 407.675 1032.99 417.774C1043.14 427.915 1053.29 438.06 1063.43 448.208C1069.47 454.245 1075.51 460.279 1081.55 466.31C1085.58 470.331 1089.61 474.356 1093.63 478.384C1095.92 480.683 1098.22 482.981 1100.52 485.275C1103 487.738 1105.46 490.208 1107.93 492.679C1108.65 493.401 1109.38 494.122 1110.13 494.866C1110.78 495.519 1111.43 496.173 1112.1 496.847C1112.66 497.412 1113.23 497.977 1113.81 498.559C1115 500 1115 500 1115 502C1094.63 508.471 1071.04 510.937 1051 502C1034.66 493.031 1021.05 479.035 1007.84 466.107C1007.37 465.643 1006.89 465.178 1006.4 464.699C994.121 452.678 982.142 440.373 970.262 427.959C962.356 419.698 954.378 411.515 946.325 403.397C945.787 402.855 945.249 402.313 944.695 401.754C941.963 399.001 939.23 396.248 936.497 393.496C917.24 374.106 898.135 354.572 879.119 334.947C860.668 315.906 842.15 296.936 823.538 278.053C822.962 277.469 822.386 276.885 821.793 276.283C816.01 270.415 810.225 264.549 804.44 258.684C792.658 246.741 780.886 234.788 769.12 222.83C768.579 222.281 768.039 221.731 767.482 221.165C731.499 184.595 695.733 147.814 660 111C658.878 111.957 657.756 112.914 656.635 113.872C656.011 114.405 655.386 114.938 654.743 115.487C652.751 117.216 650.865 119.021 649.008 120.894C648.311 121.594 647.614 122.295 646.896 123.016C646.17 123.751 645.444 124.485 644.695 125.242C643.931 126.011 643.166 126.779 642.378 127.571C639.958 130.003 637.541 132.439 635.125 134.875C631.922 138.104 628.716 141.331 625.508 144.555C624.769 145.301 624.031 146.048 623.27 146.818C622.592 147.499 621.914 148.18 621.215 148.882C620.617 149.486 620.018 150.09 619.402 150.712C618 152 618 152 617 152C615.778 142.018 614.963 132.043 614.5 122C614.466 121.262 614.431 120.524 614.396 119.764C613.597 100.285 615.073 86.0699 628.254 71.1129C636.985 62.1019 647.204 54.8064 657 47C639.51 46.67 622.02 46.34 604 46C604 181.96 604 317.92 604 458C635.35 458 666.7 458 699 458C699 472.19 699 486.38 699 501C649.83 501 600.66 501 550 501C549.78 443.061 549.595 385.123 549.489 327.184C549.477 320.346 549.464 313.508 549.451 306.67C549.449 305.99 549.448 305.309 549.447 304.608C549.404 282.554 549.329 260.5 549.237 238.446C549.14 215.14 549.08 191.833 549.059 168.526C549.045 154.563 549.002 140.602 548.921 126.64C548.868 117.069 548.852 107.499 548.865 97.9281C548.871 92.4035 548.861 86.8803 548.808 81.356C548.759 76.2977 548.757 71.2415 548.791 66.183C548.795 64.3537 548.782 62.5243 548.751 60.6953C548.531 47.0611 548.531 47.0611 552.124 42.0197C554.639 39.7184 557.153 37.8652 560 36C561.742 34.5989 563.473 33.1838 565.187 31.75C566.099 31.0126 567.01 30.2753 567.949 29.5156C571.521 26.5707 575.012 23.5427 578.5 20.5C584.57 15.2083 590.722 10.0452 597 4.99999C597.663 4.31109 598.326 3.62219 599.009 2.91242C603.368 0.125682 607.156 0.448663 612.23 0.498782Z" fill="#B59044"/>
<path d="M889 527C906.82 527 924.64 527 943 527C948.178 534.119 953.093 541.134 957.75 548.562C965.058 560.095 972.598 571.464 980.188 582.812C991.605 599.886 1002.94 617.01 1014.23 634.169C1014.81 635.05 1015.39 635.93 1015.99 636.837C1017.05 638.446 1018.1 640.055 1019.16 641.665C1024.07 649.133 1029.04 656.562 1034 664C1047.36 684.295 1047.36 684.295 1061 705C1061.5 616.89 1061.5 616.89 1062 527C1079.82 527 1097.64 527 1116 527C1116 614.45 1116 701.9 1116 792C1097.85 792 1079.7 792 1061 792C1047.29 777.022 1047.29 777.022 1044.61 769.953C1040.01 759.261 1033.67 749.959 1027.14 740.372C1023.93 735.645 1020.8 730.867 1017.67 726.094C1012.22 717.84 1006.75 709.606 1001.25 701.389C994.285 690.959 987.398 680.476 980.5 670C970.939 655.48 961.364 640.971 951.69 626.527C949.122 622.687 946.562 618.843 944 615C943.67 673.41 943.34 731.82 943 792C925.18 792 907.36 792 889 792C889 704.55 889 617.1 889 527Z" fill="white"/>
<path d="M705.742 523.797C706.832 523.788 706.832 523.788 707.944 523.78C709.479 523.77 711.013 523.764 712.548 523.76C714.834 523.75 717.12 523.719 719.406 523.687C733.576 523.584 747.129 525.5 760.562 530.187C761.44 530.489 762.318 530.79 763.223 531.1C782.128 537.788 797.598 548.126 812 562C812.78 562.705 813.56 563.41 814.363 564.137C834.851 583.242 846.182 611.757 850 639C850.13 639.923 850.26 640.846 850.394 641.797C854.333 676.458 846.427 712.718 825.742 741.098C823.561 743.799 821.31 746.408 819 749C818.292 749.839 817.584 750.678 816.855 751.543C796.76 774.897 766.418 789.919 736 794C735.205 794.111 734.409 794.222 733.59 794.336C698.34 798.368 660.449 790.587 632.078 768.543C626.853 764.226 621.861 759.726 617 755C616.441 754.469 615.882 753.937 615.306 753.39C611.044 749.264 607.458 744.921 604.062 740.062C603.547 739.327 603.032 738.592 602.502 737.835C597.536 730.584 593.544 723.03 590 715C589.519 713.913 589.038 712.827 588.543 711.707C574.45 677.433 576.181 637.016 590 603C595.199 591.242 601.637 580.755 610 571C610.434 570.489 610.868 569.978 611.316 569.451C634.34 542.566 669.926 524.022 705.742 523.797ZM657 595C646.84 606.81 640.532 619.877 637 635C636.774 635.892 636.549 636.784 636.316 637.703C631.148 662.084 635.19 689.238 647.687 710.75C659.615 728.968 676.267 740.553 697.687 745.434C718.837 749.05 740.64 746.55 759.094 735.066C779.213 720.761 790.062 700.79 794.586 676.906C797.488 649.531 794.203 621.489 776.687 599.312C762.481 582.635 744.595 574.341 723 572C699.18 570.222 673.745 577.282 657 595Z" fill="white"/>
<path d="M0 527C50.82 527 101.64 527 154 527C154 541.52 154 556.04 154 571C121 571 88 571 54 571C54 592.45 54 613.9 54 636C83.04 636 112.08 636 142 636C142 650.19 142 664.38 142 679C112.96 679 83.92 679 54 679C54 701.77 54 724.54 54 748C87 748 120 748 154 748C154 762.52 154 777.04 154 792C103.18 792 52.36 792 0 792C0 704.55 0 617.1 0 527Z" fill="white"/>
<path d="M360 527C424.35 527 488.7 527 555 527C555 541.52 555 556.04 555 571C531.57 571 508.14 571 484 571C484 643.93 484 716.86 484 792C466.51 792 449.02 792 431 792C431 719.07 431 646.14 431 571C407.57 571 384.14 571 360 571C360 556.48 360 541.96 360 527Z" fill="white"/>
<path d="M658 212C661.736 213.56 664.11 215.86 666.959 218.707C667.446 219.192 667.934 219.676 668.436 220.176C670.075 221.807 671.707 223.446 673.339 225.085C674.521 226.265 675.704 227.445 676.888 228.625C680.144 231.873 683.394 235.127 686.643 238.382C690.146 241.889 693.655 245.391 697.163 248.893C704.035 255.757 710.902 262.626 717.767 269.497C723.344 275.078 728.923 280.658 734.503 286.236C735.297 287.029 736.09 287.822 736.907 288.639C738.518 290.249 740.13 291.86 741.741 293.47C756.858 308.582 771.97 323.7 787.079 338.82C800.057 351.807 813.04 364.789 826.027 377.767C841.095 392.824 856.16 407.884 871.219 422.95C872.823 424.555 874.427 426.159 876.032 427.764C876.821 428.554 877.61 429.343 878.424 430.157C883.999 435.734 889.577 441.309 895.156 446.884C901.949 453.671 908.738 460.461 915.523 467.257C918.987 470.727 922.454 474.195 925.924 477.659C929.096 480.825 932.264 483.996 935.428 487.17C936.578 488.323 937.73 489.474 938.884 490.622C940.442 492.175 941.994 493.733 943.545 495.293C944.411 496.16 945.278 497.027 946.171 497.92C948 500 948 500 948 502C924.215 505.811 894.04 510.318 873.01 495.87C858.515 485.271 846.167 471.779 834.02 458.646C828.089 452.249 821.971 446.043 815.84 439.839C804.92 428.78 794.149 417.588 783.469 406.297C773.119 395.356 762.701 384.487 752.187 373.703C751.535 373.034 750.883 372.365 750.211 371.676C746.937 368.318 743.662 364.962 740.385 361.606C713.378 333.939 686.611 306.049 660 278C656.764 279.54 654.603 281.157 652.073 283.715C651.316 284.476 650.559 285.237 649.779 286.02C648.568 287.252 648.568 287.252 647.332 288.508C646.497 289.348 645.661 290.189 644.8 291.055C642.133 293.74 639.472 296.432 636.812 299.125C634.141 301.824 631.468 304.522 628.792 307.216C627.127 308.894 625.464 310.574 623.804 312.258C623.056 313.012 622.309 313.766 621.538 314.543C620.877 315.212 620.217 315.882 619.536 316.571C618 318 618 318 617 318C615.746 308.04 614.911 298.087 614.437 288.062C614.385 286.957 614.385 286.957 614.331 285.829C613.549 267.248 614.627 252.288 627.479 238.06C636.617 228.312 647.168 219.788 658 212Z" fill="#B69245"/>
<path d="M201 527C218.82 527 236.64 527 255 527C255 600.26 255 673.52 255 749C283.71 749 312.42 749 342 749C342 763.19 342 777.38 342 792C295.47 792 248.94 792 201 792C201 704.55 201 617.1 201 527Z" fill="white"/>
<path d="M536 164C543.597 220.249 543.597 220.249 528.508 241.213C519.711 252.504 509.194 262.351 498.646 271.98C493.115 277.042 487.779 282.293 482.442 287.558C472.93 296.931 463.285 306.154 453.542 315.287C444.104 324.133 434.739 333.046 425.458 342.057C424.882 342.617 424.306 343.176 423.712 343.753C420.819 346.563 417.927 349.373 415.036 352.185C391.225 375.337 367.193 398.247 343 421C341.036 418.423 339.357 415.961 337.915 413.058C337.535 412.297 337.155 411.537 336.763 410.753C336.363 409.943 335.963 409.132 335.551 408.297C334.925 407.04 334.925 407.04 334.286 405.758C332.958 403.091 331.635 400.42 330.312 397.75C329.411 395.937 328.509 394.125 327.607 392.312C325.401 387.877 323.199 383.439 321 379C325.61 373.468 330.514 368.345 335.611 363.262C336.465 362.406 337.319 361.551 338.199 360.67C340.553 358.312 342.909 355.957 345.267 353.603C347.814 351.057 350.359 348.509 352.905 345.961C357.883 340.978 362.864 335.998 367.846 331.018C371.893 326.974 375.939 322.928 379.984 318.882C380.848 318.018 380.848 318.018 381.73 317.136C382.901 315.965 384.071 314.794 385.242 313.623C396.205 302.657 407.171 291.694 418.139 280.732C427.557 271.318 436.973 261.901 446.387 252.483C457.32 241.545 468.254 230.608 479.191 219.674C480.356 218.51 481.52 217.346 482.685 216.181C483.258 215.608 483.831 215.036 484.421 214.445C488.467 210.4 492.512 206.354 496.557 202.307C501.478 197.383 506.401 192.46 511.327 187.54C513.842 185.028 516.356 182.515 518.867 180C521.583 177.28 524.303 174.565 527.024 171.849C527.826 171.045 528.628 170.24 529.455 169.411C530.178 168.691 530.901 167.971 531.645 167.229C532.588 166.287 532.588 166.287 533.549 165.326C535 164 535 164 536 164Z" fill="#936830"/>
<path d="M717 354C734.652 362.826 753.333 375.645 761.17 394.494C771.647 426.145 764.162 469.712 762 502C747.15 502 732.3 502 717 502C717 453.16 717 404.32 717 354Z" fill="#B38E43"/>
<path d="M590.671 833.221C604.245 843.979 612.453 858.915 615 876C616.762 896.035 613.26 914.392 600.938 930.687C590.295 943.041 575.197 950.411 559 952C540.828 953.203 523.48 948.631 509.5 936.687C495.795 923.235 488.823 906.275 488.625 887.062C488.87 869.341 494.219 852.876 506.797 840.105C507.524 839.411 508.251 838.716 509 838C509.624 837.357 510.248 836.713 510.891 836.051C531.22 816.362 568.639 817.125 590.671 833.221ZM515 850C505.173 862.448 502.094 877.426 503 893C504.638 906.33 509.812 920.14 520.359 928.977C532.882 937.611 545.527 941.969 560.801 939.348C573.82 936.637 584.144 931.06 592 920C600.956 905.303 603.582 888.437 599.875 871.625C595.758 857.827 588.296 846.231 575.488 839.18C554.896 829.417 530.621 833.015 515 850Z" fill="white"/>
<path d="M536 54C538.194 63.1214 539.583 72.2839 540.375 81.625C540.435 82.3252 540.494 83.0254 540.556 83.7469C542.022 103.365 537.886 117.843 524.985 132.881C517.427 141.33 509.393 149.251 501.125 157C500.292 157.782 499.459 158.565 498.601 159.37C490.119 167.301 481.495 175.064 472.653 182.59C472.005 183.144 471.358 183.698 470.691 184.269C466.243 188 466.243 188 464 188C461.806 178.879 460.417 169.716 459.625 160.375C459.565 159.675 459.506 158.975 459.444 158.253C457.978 138.635 462.114 124.157 475.015 109.119C482.573 100.67 490.607 92.7486 498.875 85C499.708 84.2177 500.541 83.4355 501.399 82.6295C509.881 74.6995 518.505 66.9365 527.347 59.4102C528.318 58.5789 528.318 58.5789 529.309 57.7309C533.757 54 533.757 54 536 54Z" fill="#9A7134"/>
<path d="M830 823C890.035 823 890.035 823 901.25 833.008C909.651 841.872 912.306 850.937 912.145 862.945C911.66 873.184 907.841 881.597 900.438 888.812C895.34 893.006 889.196 894.95 883 897C884.45 900.956 886.33 904.389 888.527 907.98C888.873 908.547 889.218 909.113 889.573 909.697C890.311 910.905 891.05 912.113 891.79 913.319C892.945 915.2 894.095 917.084 895.244 918.968C898.669 924.582 902.111 930.185 905.57 935.777C906.083 936.609 906.597 937.441 907.125 938.298C908.063 939.816 909.005 941.332 909.951 942.844C913 947.778 913 947.778 913 950C910.453 950.245 907.929 950.422 905.375 950.562C904.306 950.676 904.306 950.676 903.215 950.791C900.881 950.887 899.21 950.774 897 950C894.349 947.392 892.768 944.247 891 941C890.015 939.339 889.03 937.678 888.039 936.02C886.209 932.945 884.42 929.846 882.625 926.75C881.901 925.504 881.177 924.258 880.453 923.012C880.097 922.397 879.741 921.782 879.374 921.149C878.651 919.915 877.918 918.687 877.174 917.465C875.344 914.441 873.752 911.508 872.452 908.217C870.752 904.009 870.752 904.009 866 899C858.74 898.67 851.48 898.34 844 898C844 915.16 844 932.32 844 950C839.38 950 834.76 950 830 950C830 908.09 830 866.18 830 823ZM844 835C844 851.83 844 868.66 844 886C852.106 886.124 852.106 886.124 860.375 886.25C862.901 886.305 862.901 886.305 865.478 886.36C874.809 886.479 882.682 886.038 890.402 880.176C895.867 873.543 898.655 866.947 898.277 858.254C897.292 850.244 894.095 844.33 888 839C881.935 835.271 875.464 834.875 868.512 834.902C866.581 834.906 866.581 834.906 864.612 834.91C862.174 834.924 862.174 834.924 859.688 834.938C854.511 834.958 849.334 834.979 844 835Z" fill="white"/>
<path d="M389 823C449.035 823 449.035 823 460.25 833.008C468.651 841.872 471.306 850.937 471.145 862.945C470.66 873.184 466.841 881.597 459.438 888.812C454.34 893.006 448.196 894.95 442 897C443.45 900.956 445.33 904.389 447.527 907.98C447.873 908.547 448.218 909.113 448.573 909.697C449.311 910.905 450.05 912.113 450.79 913.319C451.945 915.2 453.095 917.084 454.244 918.968C457.669 924.582 461.111 930.185 464.57 935.777C465.083 936.609 465.597 937.441 466.125 938.298C467.063 939.816 468.005 941.332 468.951 942.844C472 947.778 472 947.778 472 950C469.453 950.245 466.929 950.422 464.375 950.562C463.306 950.676 463.306 950.676 462.215 950.791C459.881 950.887 458.21 950.774 456 950C453.349 947.392 451.768 944.247 450 941C449.015 939.339 448.03 937.678 447.039 936.02C445.209 932.945 443.42 929.846 441.625 926.75C440.901 925.504 440.177 924.258 439.453 923.012C439.097 922.397 438.741 921.782 438.374 921.149C437.651 919.915 436.918 918.687 436.174 917.465C434.344 914.441 432.752 911.508 431.452 908.217C429.752 904.009 429.752 904.009 425 899C417.74 898.67 410.48 898.34 403 898C403 915.16 403 932.32 403 950C398.38 950 393.76 950 389 950C389 908.09 389 866.18 389 823ZM403 835C403 851.83 403 868.66 403 886C411.106 886.124 411.106 886.124 419.375 886.25C421.901 886.305 421.901 886.305 424.478 886.36C433.809 886.479 441.682 886.038 449.402 880.176C454.867 873.543 457.655 866.947 457.277 858.254C456.292 850.244 453.095 844.33 447 839C440.935 835.271 434.464 834.875 427.512 834.902C425.581 834.906 425.581 834.906 423.612 834.91C421.174 834.924 421.174 834.924 418.688 834.938C413.511 834.958 408.334 834.979 403 835Z" fill="white"/>
<path d="M638 823C698.513 823 698.513 823 710.938 834.188C718.174 842.167 720.326 852.205 720.148 862.68C719.504 872.759 715.498 881.515 708.066 888.434C696.043 897.548 681.143 897.299 666.75 897.125C661.883 897.084 657.015 897.043 652 897C652 914.49 652 931.98 652 950C647.38 950 642.76 950 638 950C638 908.09 638 866.18 638 823ZM652 835C652 851.5 652 868 652 885C659.27 885.124 659.27 885.124 666.688 885.25C668.188 885.286 669.688 885.323 671.233 885.36C680.483 885.436 690.986 885.287 698.356 878.985C704.608 872.208 705.874 866.098 706 857C705.521 850.173 703.031 844.702 698 840C695.11 838.267 692.203 837.031 689 836C688.453 835.823 687.905 835.646 687.341 835.463C684.029 834.808 680.752 834.877 677.391 834.902C676.746 834.903 676.101 834.904 675.437 834.905C673.041 834.911 670.646 834.925 668.25 834.938C662.887 834.958 657.525 834.979 652 835Z" fill="white"/>
<path d="M287 823C347.513 823 347.513 823 359.938 834.188C367.174 842.167 369.326 852.205 369.148 862.68C368.504 872.759 364.498 881.515 357.066 888.434C345.043 897.548 330.143 897.299 315.75 897.125C310.883 897.084 306.015 897.043 301 897C301 914.49 301 931.98 301 950C296.38 950 291.76 950 287 950C287 908.09 287 866.18 287 823ZM301 835C301 851.5 301 868 301 885C308.27 885.124 308.27 885.124 315.688 885.25C317.188 885.286 318.688 885.323 320.233 885.36C329.483 885.436 339.986 885.287 347.356 878.985C353.608 872.208 354.874 866.098 355 857C354.521 850.173 352.031 844.702 347 840C344.11 838.267 341.203 837.031 338 836C337.453 835.823 336.905 835.646 336.341 835.463C333.029 834.808 329.752 834.877 326.391 834.902C325.746 834.903 325.101 834.904 324.437 834.905C322.041 834.911 319.646 834.925 317.25 834.938C311.887 834.958 306.525 834.979 301 835Z" fill="white"/>
<path d="M739 823C761.11 823 783.22 823 806 823C806 826.96 806 830.92 806 835C788.51 835 771.02 835 753 835C753 850.18 753 865.36 753 881C768.51 881 784.02 881 800 881C800 884.63 800 888.26 800 892C784.49 892 768.98 892 753 892C753 907.51 753 923.02 753 939C770.49 939 787.98 939 806 939C806 942.63 806 946.26 806 950C783.89 950 761.78 950 739 950C739 908.09 739 866.18 739 823Z" fill="white"/>
<path d="M1019 823C1024.28 823 1029.56 823 1035 823C1039.05 831.047 1043.09 839.096 1047.13 847.148C1049 850.886 1050.88 854.624 1052.76 858.36C1054.57 861.963 1056.38 865.568 1058.18 869.175C1058.87 870.553 1059.57 871.93 1060.26 873.306C1061.23 875.23 1062.19 877.155 1063.15 879.082C1063.71 880.179 1064.26 881.276 1064.82 882.406C1066 885 1066 885 1066 887C1066.66 887 1067.32 887 1068 887C1068.27 886.134 1068.54 885.268 1068.82 884.375C1069.97 881.089 1071.33 878.104 1072.89 874.995C1073.47 873.834 1074.05 872.673 1074.65 871.477C1075.28 870.227 1075.91 868.977 1076.54 867.727C1077.19 866.435 1077.83 865.143 1078.48 863.851C1080.18 860.466 1081.88 857.084 1083.58 853.701C1085.32 850.244 1087.05 846.784 1088.79 843.324C1092.19 836.547 1095.59 829.773 1099 823C1103.95 823 1108.9 823 1114 823C1113.14 827.311 1112.25 829.827 1110.26 833.621C1109.7 834.71 1109.13 835.799 1108.54 836.921C1107.93 838.081 1107.32 839.242 1106.69 840.438C1106.05 841.655 1105.41 842.873 1104.78 844.091C1101.35 850.619 1097.88 857.119 1094.33 863.581C1093.35 865.378 1092.38 867.181 1091.43 868.991C1089.05 873.451 1086.6 877.635 1083.62 881.719C1070.07 901.589 1073.46 926.963 1074 950C1069.38 950 1064.76 950 1060 950C1060.06 947.94 1060.06 947.94 1060.13 945.839C1061.43 908.852 1061.43 908.852 1046.86 875.768C1043.9 871.364 1041.48 866.688 1039 862C1038.04 860.245 1037.07 858.491 1036.11 856.738C1032.4 849.935 1028.82 843.065 1025.25 836.188C1024.78 835.28 1024.78 835.28 1024.3 834.354C1023.41 832.648 1022.52 830.939 1021.64 829.23C1021.13 828.245 1020.62 827.259 1020.09 826.243C1019 824 1019 824 1019 823Z" fill="white"/>
<path d="M717 189C717.969 189.851 718.939 190.703 719.938 191.58C722.642 193.903 725.408 196.078 728.283 198.186C760.924 222.343 760.924 222.343 763.769 240.858C765.995 258.672 764.16 277.277 762 295C761.03 294.149 760.061 293.297 759.062 292.42C756.357 290.097 753.592 287.922 750.717 285.814C718.075 261.657 718.075 261.657 715.231 243.142C713.004 225.328 714.84 206.723 717 189Z" fill="#B38F43"/>
<path d="M927 823C954.72 823 982.44 823 1011 823C1011 826.96 1011 830.92 1011 835C999.45 835 987.9 835 976 835C976 872.95 976 910.9 976 950C971.38 950 966.76 950 962 950C962 912.05 962 874.1 962 835C950.45 835 938.9 835 927 835C927 831.04 927 827.08 927 823Z" fill="white"/>
</svg>
