<svg width="1681" height="463" viewBox="0 0 1681 463" fill="none" xmlns="http://www.w3.org/2000/svg">
<path d="M264.319 0.49888C265.733 0.490578 265.733 0.490578 267.175 0.482109C270.335 0.468487 273.495 0.483481 276.655 0.498376C278.92 0.494593 281.186 0.489094 283.451 0.482004C289.611 0.468018 295.771 0.479246 301.931 0.495715C308.388 0.509567 314.846 0.503104 321.303 0.499582C332.163 0.496877 343.022 0.51028 353.882 0.533533C365.019 0.557376 376.156 0.564568 387.293 0.55404C400.74 0.541352 414.187 0.543984 427.634 0.5597C432.754 0.565427 437.873 0.565402 442.993 0.560634C449.046 0.555819 455.098 0.566151 461.151 0.587589C463.359 0.593099 465.566 0.593675 467.774 0.588636C505.003 0.514388 535.499 10.1112 563 36.0001C563.905 36.8083 563.905 36.8083 564.828 37.6329C585.984 57.3055 597.026 87.938 598.281 116.234C599.175 150.155 587.146 181.182 564 206C553.913 216.504 542.299 223.933 529.438 230.625C528.771 230.98 528.104 231.336 527.417 231.702C523.44 233.694 521.24 234.313 517 233C515.184 231.665 515.184 231.665 513.495 229.949C512.855 229.308 512.214 228.668 511.555 228.008C510.543 226.966 510.543 226.966 509.512 225.902C508.809 225.194 508.105 224.485 507.381 223.754C505.14 221.491 502.914 219.215 500.688 216.938C499.17 215.4 497.651 213.862 496.131 212.326C492.41 208.561 488.701 204.785 485 201C487.663 198.337 489.684 198.352 493.375 197.688C512.755 193.724 530.908 182.582 542 166C553.704 147.109 558.495 125.526 553.975 103.483C548.907 82.9838 536.455 66.2745 518.813 54.8126C506.889 47.7141 493.756 43.7191 479.9 43.6812C479.041 43.6712 478.181 43.6611 477.295 43.6508C474.487 43.6202 471.679 43.603 468.871 43.586C466.911 43.5673 464.951 43.5477 462.991 43.5273C457.857 43.4762 452.723 43.4365 447.589 43.3992C441.415 43.352 435.242 43.2904 429.068 43.2313C419.712 43.1434 410.356 43.0734 401 43.0001C401 66.7601 401 90.5201 401 115C397.543 113.272 395.826 112.089 393.165 109.472C392.428 108.751 391.691 108.029 390.931 107.286C390.146 106.506 389.36 105.726 388.551 104.922C387.738 104.118 386.924 103.314 386.087 102.485C384.37 100.783 382.656 99.0781 380.945 97.3707C378.324 94.7616 375.685 92.1718 373.045 89.5821C371.379 87.9257 369.714 86.2682 368.051 84.6095C367.259 83.8374 366.468 83.0653 365.652 82.2698C359.006 75.568 359.006 75.568 359 70.0001C358.963 68.9271 358.925 67.8541 358.887 66.7486C358.892 65.607 358.897 64.4654 358.902 63.2891C358.905 62.1672 358.907 61.0452 358.91 59.8892C358.919 58.4821 358.928 57.0749 358.938 55.6251C358.958 51.1288 358.979 46.6326 359 42.0001C342.83 42.3301 326.66 42.6601 310 43.0001C315.162 48.1572 320.323 53.3143 325.641 58.6277C359.709 92.6666 393.775 126.707 427.837 160.752C428.417 161.332 428.998 161.913 429.597 162.511C442.218 175.126 454.839 187.741 467.459 200.357C473.648 206.543 479.837 212.729 486.025 218.916C486.641 219.531 487.257 220.147 487.892 220.781C507.872 240.753 527.855 260.721 547.84 280.687C568.369 301.197 588.894 321.71 609.415 342.228C612.311 345.122 615.206 348.017 618.101 350.911C618.956 351.766 618.956 351.766 619.828 352.638C629.019 361.827 638.214 371.012 647.41 380.197C656.645 389.419 665.875 398.645 675.102 407.875C680.591 413.366 686.083 418.853 691.579 424.337C695.671 428.421 699.759 432.511 703.844 436.602C705.506 438.265 707.169 439.926 708.835 441.585C711.083 443.825 713.325 446.072 715.566 448.32C716.227 448.975 716.888 449.631 717.569 450.307C722 454.772 722 454.772 722 457C703.208 462.85 681.492 465.175 663 457C634.63 441.534 611.668 412.848 589.602 389.776C582.428 382.274 575.187 374.845 567.878 367.475C567.39 366.983 566.902 366.491 566.399 365.984C563.919 363.484 561.437 360.985 558.956 358.486C541.476 340.883 524.136 323.148 506.877 305.328C490.132 288.039 473.325 270.815 456.431 253.672C455.648 252.877 455.648 252.877 454.848 252.065C449.598 246.738 444.347 241.412 439.096 236.087C428.402 225.243 417.716 214.391 407.036 203.534C406.545 203.035 406.054 202.536 405.548 202.022C372.889 168.821 340.429 135.426 308 102C304.94 103.464 302.842 104.92 300.457 107.348C299.446 108.369 299.446 108.369 298.414 109.411C297.698 110.144 296.981 110.877 296.242 111.633C295.498 112.385 294.754 113.137 293.987 113.911C291.611 116.311 289.243 118.717 286.875 121.125C283.753 124.3 280.625 127.468 277.492 130.633C276.771 131.37 276.051 132.108 275.308 132.868C274.306 133.879 274.306 133.879 273.285 134.911C272.697 135.509 272.11 136.107 271.504 136.723C270 138 270 138 268 138C261.489 86.928 261.489 86.928 273.881 70.67C283.08 59.8998 293.828 51.9832 305 43.0001C280.745 42.5051 280.745 42.5051 256 42.0001C256 165.75 256 289.5 256 417C284.71 417 313.42 417 343 417C343 430.2 343 443.4 343 457C298.45 457 253.9 457 208 457C207.78 404.157 207.595 351.315 207.489 298.472C207.477 292.235 207.464 285.997 207.451 279.76C207.448 278.518 207.446 277.277 207.443 275.997C207.399 255.886 207.32 235.775 207.229 215.663C207.135 195.031 207.079 174.398 207.059 153.765C207.045 141.031 207.002 128.297 206.921 115.564C206.868 106.834 206.852 98.1048 206.865 89.375C206.871 84.3365 206.862 79.2994 206.808 74.2611C206.759 69.6468 206.757 65.0348 206.791 60.4204C206.795 58.7526 206.783 57.0847 206.751 55.4172C206.531 42.9694 206.531 42.9694 210.2 38.0518C212.695 35.7776 215.193 33.8662 218 32.0001C219 31.1648 220.001 30.3295 221.031 29.4688C221.846 28.8191 222.661 28.1695 223.5 27.5001C227.095 24.592 230.583 21.6147 234 18.5001C239.169 13.7929 244.551 9.37759 250 5.00009C251.028 3.96239 251.028 3.96239 252.077 2.90373C256.186 0.227937 259.513 0.446371 264.319 0.49888Z" fill="#B59144"/>
<path d="M1474 60C1490.5 60 1507 60 1524 60C1535.43 77.1473 1535.43 77.1473 1540.69 85.1406C1541.88 86.9571 1543.08 88.7736 1544.27 90.5901C1544.88 91.5142 1545.49 92.4383 1546.12 93.3904C1554.84 106.637 1563.56 119.88 1572.38 133.062C1583.01 148.978 1593.49 164.996 1604 181C1617.36 201.295 1617.36 201.295 1631 222C1631.5 141.81 1631.5 141.81 1632 60C1648.17 60 1664.34 60 1681 60C1681 139.53 1681 219.06 1681 301C1664.5 301 1648 301 1631 301C1617.06 285.438 1617.06 285.438 1614 278.176C1609.05 267.512 1602.66 258.012 1596.06 248.304C1592.87 243.586 1589.76 238.82 1586.63 234.059C1581.21 225.82 1575.75 217.606 1570.27 209.408C1561.91 196.894 1553.65 184.311 1545.38 171.74C1544.77 170.817 1544.16 169.894 1543.53 168.942C1542.4 167.227 1541.27 165.511 1540.15 163.795C1535.13 156.175 1530.06 148.592 1525 141C1524.67 193.8 1524.34 246.6 1524 301C1507.5 301 1491 301 1474 301C1474 221.47 1474 141.94 1474 60Z" fill="#241F20"/>
<path d="M1348 60C1348.66 60.1663 1349.31 60.3326 1349.99 60.5039C1382.49 68.9661 1408.2 90.3954 1425.25 118.875C1434.46 135.233 1439.35 154.252 1440 173C1440.04 174.035 1440.08 175.07 1440.12 176.137C1440.75 208.54 1430.95 238.172 1410 263C1409.28 263.918 1409.28 263.918 1408.55 264.855C1404.11 270.417 1398.61 274.67 1393 279C1392.22 279.61 1391.44 280.219 1390.63 280.848C1372.13 294.546 1348.03 303.171 1325 304C1323.8 304.052 1322.6 304.103 1321.36 304.156C1286.01 305.177 1253.87 293.053 1228 269C1206.18 247.753 1193.49 218.175 1192.7 187.766C1192.68 185.26 1192.68 182.755 1192.69 180.25C1192.69 178.93 1192.7 177.611 1192.7 176.251C1193.12 142.914 1206.24 112.865 1230.01 89.522C1248.02 72.5107 1270.71 62.1891 1295 58C1296 57.8157 1297 57.6313 1298.03 57.4414C1314.47 55.6128 1331.93 55.8661 1348 60ZM1260.26 125.427C1245.58 143.756 1240.94 168.64 1243.47 191.523C1246.09 212.213 1253.9 231.449 1270.45 245.004C1287.64 257.481 1307.52 262.089 1328.5 259.25C1348.72 255.776 1364.7 245.484 1376.59 228.77C1389.29 208.997 1392 183.195 1387.81 160.375C1383.29 139.903 1373.15 122.402 1355.31 110.973C1325.12 92.9902 1283.48 98.7734 1260.26 125.427Z" fill="#241F20"/>
<path d="M665 60C711.53 60 758.06 60 806 60C806 73.2 806 86.4 806 100C775.64 100 745.28 100 714 100C714 119.47 714 138.94 714 159C740.73 159 767.46 159 795 159C795 171.87 795 184.74 795 198C768.27 198 741.54 198 714 198C714 218.79 714 239.58 714 261C744.36 261 774.72 261 806 261C806 274.2 806 287.4 806 301C759.47 301 712.94 301 665 301C665 221.47 665 141.94 665 60Z" fill="#241F20"/>
<path d="M993 60C1051.41 60 1109.82 60 1170 60C1170 73.2 1170 86.4 1170 100C1148.88 100 1127.76 100 1106 100C1106 166.33 1106 232.66 1106 301C1089.83 301 1073.66 301 1057 301C1057 234.67 1057 168.34 1057 100C1035.88 100 1014.76 100 993 100C993 86.8 993 73.6 993 60Z" fill="#241F20"/>
<path d="M306 193C309.551 194.514 311.833 196.583 314.553 199.301C315.466 200.209 316.38 201.118 317.321 202.054C318.331 203.068 319.342 204.083 320.352 205.098C321.427 206.171 322.503 207.244 323.579 208.316C326.539 211.267 329.493 214.225 332.445 217.184C335.629 220.372 338.819 223.555 342.008 226.738C348.254 232.976 354.496 239.22 360.735 245.465C365.804 250.538 370.875 255.609 375.947 260.679C376.668 261.4 377.389 262.121 378.132 262.863C379.596 264.327 381.061 265.791 382.526 267.255C396.267 280.991 410.002 294.732 423.735 308.476C435.531 320.281 447.331 332.08 459.136 343.875C472.832 357.561 486.526 371.25 500.214 384.945C501.672 386.403 503.13 387.862 504.588 389.321C505.306 390.039 506.023 390.756 506.763 391.496C511.83 396.565 516.9 401.633 521.971 406.699C528.145 412.867 534.316 419.039 540.482 425.216C543.631 428.37 546.781 431.523 549.936 434.671C552.82 437.548 555.698 440.43 558.573 443.316C559.619 444.364 560.666 445.409 561.714 446.453C563.131 447.864 564.541 449.281 565.951 450.699C567.132 451.881 567.132 451.881 568.337 453.087C570 455 570 455 570 457C548.228 460.508 521.413 464.331 502.013 451.417C488.896 441.583 477.615 429.517 466.512 417.517C461.11 411.691 455.537 406.04 449.952 400.389C440.006 390.317 430.195 380.124 420.466 369.842C411.038 359.878 401.549 349.98 391.972 340.158C391.081 339.244 391.081 339.244 390.172 338.312C387.19 335.254 384.206 332.197 381.223 329.141C356.622 303.944 332.24 278.544 308 253C306.875 253.96 305.75 254.92 304.625 255.881C303.999 256.416 303.372 256.951 302.727 257.502C300.873 259.11 299.113 260.778 297.391 262.527C296.778 263.147 296.164 263.767 295.532 264.406C294.896 265.053 294.26 265.7 293.605 266.367C292.225 267.761 290.844 269.154 289.463 270.547C287.31 272.724 285.159 274.903 283.011 277.085C280.922 279.204 278.827 281.317 276.73 283.43C276.085 284.089 275.439 284.748 274.773 285.427C273.877 286.329 273.877 286.329 272.962 287.25C272.174 288.048 272.174 288.048 271.37 288.863C270 290 270 290 268 290C266.838 280.982 266.064 271.955 265.625 262.875C265.576 261.873 265.576 261.873 265.526 260.85C264.842 244.932 265.58 231.283 276.461 218.621C285.303 209.028 295.45 200.647 306 193Z" fill="#B69245"/>
<path d="M848 60C864.17 60 880.34 60 897 60C897 126.66 897 193.32 897 262C923.07 262 949.14 262 976 262C976 274.87 976 287.74 976 301C933.76 301 891.52 301 848 301C848 221.47 848 141.94 848 60Z" fill="#241F20"/>
<path d="M195 149C201.875 200.969 201.875 200.969 188.22 220.067C179.864 230.854 169.772 240.139 159.728 249.32C155.22 253.468 150.879 257.79 146.52 262.094C137.906 270.59 129.17 278.946 120.342 287.219C111.794 295.23 103.317 303.306 94.9189 311.473C94.3973 311.98 93.8757 312.487 93.3383 313.01C90.7206 315.556 88.104 318.104 85.4878 320.652C70.0405 335.692 54.5221 350.657 38.8464 365.459C37.1558 367.056 35.4667 368.654 33.7791 370.253C31.4857 372.425 29.1862 374.591 26.8841 376.753C25.8715 377.714 25.8715 377.714 24.8384 378.695C20.23 383 20.23 383 17.9999 383C15.4002 377.974 12.819 372.938 10.2546 367.894C9.37973 366.179 8.49988 364.467 7.61493 362.758C6.34325 360.3 5.08992 357.833 3.83978 355.363C3.44089 354.602 3.042 353.84 2.63103 353.055C2.27058 352.335 1.91013 351.615 1.53876 350.872C1.05577 349.93 1.05577 349.93 0.563033 348.968C-0.199646 346.302 0.253398 344.659 0.999938 342C2.36051 340.141 2.3605 340.141 4.13434 338.371C4.80801 337.688 5.48168 337.006 6.17577 336.303C6.92312 335.567 7.67048 334.83 8.44049 334.072C9.6229 332.883 9.62291 332.883 10.8292 331.671C13.4815 329.009 16.1479 326.363 18.8144 323.716C20.7152 321.814 22.6153 319.912 24.5143 318.009C29.1432 313.374 33.7826 308.749 38.4256 304.128C43.8279 298.751 49.2194 293.362 54.6103 287.973C64.2252 278.362 73.8493 268.761 83.4789 259.164C92.8322 249.843 102.18 240.517 111.521 231.184C112.097 230.609 112.672 230.033 113.265 229.441C115.579 227.129 117.893 224.818 120.206 222.506C129.097 213.622 137.992 204.743 146.888 195.864C149.579 193.179 152.269 190.494 154.959 187.808C160.616 182.16 166.274 176.513 171.937 170.872C174.279 168.538 176.621 166.203 178.961 163.866C181.491 161.34 184.025 158.816 186.559 156.293C187.307 155.546 188.054 154.798 188.824 154.028C189.498 153.359 190.171 152.69 190.866 152C191.744 151.125 191.744 151.125 192.639 150.232C194 149 194 149 195 149Z" fill="#936830"/>
<path d="M360 322C362.31 323.98 364.62 325.96 367 328C368.983 329.162 370.967 330.323 372.976 331.438C385.041 338.445 396.762 348.267 401 362C407.393 392.097 402.849 426.71 401 457C387.47 457 373.94 457 360 457C360 412.45 360 367.9 360 322Z" fill="#B38E43"/>
<path d="M1035.81 351.562C1046.86 362.223 1053.67 376.934 1054.2 392.285C1054.52 411.509 1050.55 427.621 1037 442C1026.11 452.159 1011.53 456.911 996.812 457.312C979.778 456.637 965.12 450.678 953.25 438.312C944.49 428.113 939.759 415.354 939 402C938.938 400.958 938.938 400.958 938.875 399.894C938.36 382.219 944.146 366.786 956.023 353.785C977.613 332.878 1012.9 333.058 1035.81 351.562ZM962.187 365.25C953.342 377.559 950.436 391.504 952.465 406.418C954.652 418.284 959.631 429.091 969 437C980.971 444.552 992.906 447.495 1007 445C1019.22 441.836 1028.12 435.058 1034.75 424.332C1041.82 411.109 1043.54 395.44 1039.37 380.937C1035.12 369.18 1028.63 360.185 1017.6 354.141C1010.56 351.054 1004.33 349.462 996.625 349.562C995.794 349.571 994.963 349.579 994.108 349.588C981.319 349.938 970.406 355.328 962.187 365.25Z" fill="#241F20"/>
<path d="M195 49C199.442 67.6602 203.971 92.5881 193.688 110.253C185.289 122.839 174.058 133.404 163.062 143.688C162.299 144.402 161.536 145.117 160.749 145.854C152.98 153.095 145.081 160.182 136.988 167.061C136.096 167.82 136.096 167.82 135.186 168.594C131.128 172 131.128 172 130 172C125.558 153.34 121.029 128.412 131.312 110.747C139.711 98.1609 150.942 87.596 161.937 77.3125C162.701 76.5977 163.464 75.8829 164.25 75.1465C172.02 67.9045 179.919 60.8182 188.011 53.9387C188.606 53.4328 189.201 52.927 189.814 52.4057C193.872 49 193.872 49 195 49Z" fill="#9A7134"/>
<path d="M1250 340C1304.4 340 1304.4 340 1315 349C1322.54 356.955 1324.51 364.911 1324.42 375.64C1324.08 385.222 1320.96 392.023 1314.36 399.016C1309.31 403.267 1303.61 406 1297 406C1302.41 415.687 1308.12 425.171 1313.9 434.635C1318.02 441.376 1322.06 448.151 1326 455C1320.67 455.797 1315.25 456.541 1310 455C1305.73 451.18 1303.51 446.51 1301.06 441.438C1300.36 440.096 1299.65 438.758 1298.93 437.423C1297.54 434.811 1296.17 432.188 1294.83 429.548C1292.58 425.178 1290.1 420.987 1287.5 416.812C1284.09 411.177 1284.09 411.177 1283 409C1276.07 408.67 1269.14 408.34 1262 408C1262 423.51 1262 439.02 1262 455C1258.04 455 1254.08 455 1250 455C1250 417.05 1250 379.1 1250 340ZM1262 350C1262 365.51 1262 381.02 1262 397C1269.15 397.093 1269.15 397.093 1276.44 397.188C1277.92 397.215 1279.41 397.242 1280.94 397.27C1289.86 397.326 1296.79 396.777 1304.31 391.812C1309.83 386.036 1311.26 381.56 1311.5 373.5C1311.29 366.5 1310.37 361.675 1305.61 356.484C1297.15 348.741 1285.23 349.862 1274.56 349.938C1270.42 349.958 1266.27 349.979 1262 350Z" fill="#241F20"/>
<path d="M849 340C903.395 340 903.395 340 914 349C921.543 356.955 923.512 364.911 923.417 375.64C923.083 385.222 919.964 392.023 913.355 399.016C908.31 403.267 902.613 406 896 406C901.406 415.687 907.116 425.171 912.903 434.635C917.022 441.376 921.064 448.151 925 455C919.672 455.797 914.253 456.541 909 455C904.73 451.18 902.514 446.51 900.062 441.438C899.358 440.096 898.647 438.758 897.93 437.423C896.535 434.811 895.171 432.188 893.833 429.548C891.575 425.178 889.096 420.987 886.5 416.812C883.088 411.177 883.088 411.177 882 409C875.07 408.67 868.14 408.34 861 408C861 423.51 861 439.02 861 455C857.04 455 853.08 455 849 455C849 417.05 849 379.1 849 340ZM861 350C861 365.51 861 381.02 861 397C868.147 397.093 868.147 397.093 875.438 397.188C876.922 397.215 878.406 397.242 879.935 397.27C888.858 397.326 895.794 396.777 903.312 391.812C908.832 386.036 910.26 381.56 910.5 373.5C910.291 366.5 909.372 361.675 904.609 356.484C896.154 348.741 884.227 349.862 873.562 349.938C869.417 349.958 865.271 349.979 861 350Z" fill="#241F20"/>
<path d="M1075 340C1129.95 340 1129.95 340 1140.69 349.492C1147.17 356.262 1149.22 364.377 1149.5 373.562C1149.2 383.232 1146.59 390.205 1139.92 397.246C1128.54 407.651 1114.06 407.167 1099.44 407.062C1093.28 407.032 1093.28 407.032 1087 407C1087 422.84 1087 438.68 1087 455C1083.04 455 1079.08 455 1075 455C1075 417.05 1075 379.1 1075 340ZM1087 350C1087 365.18 1087 380.36 1087 396C1091.21 396.062 1095.41 396.124 1099.75 396.188C1101.05 396.215 1102.35 396.242 1103.69 396.27C1112.8 396.334 1122.55 395.986 1130.06 390.25C1135.31 384.974 1136.19 380.327 1136.44 373.062C1136.25 365.258 1134.62 360.947 1129.5 355.188C1121.24 349.052 1109.51 349.608 1099.75 349.812C1093.44 349.905 1093.44 349.905 1087 350Z" fill="#241F20"/>
<path d="M756 340C810.953 340 810.953 340 821.688 349.492C828.166 356.262 830.222 364.377 830.5 373.562C830.196 383.232 827.589 390.205 820.918 397.246C809.54 407.651 795.056 407.167 780.438 407.062C774.281 407.032 774.281 407.032 768 407C768 422.84 768 438.68 768 455C764.04 455 760.08 455 756 455C756 417.05 756 379.1 756 340ZM768 350C768 365.18 768 380.36 768 396C772.207 396.062 776.415 396.124 780.75 396.188C782.05 396.215 783.351 396.242 784.69 396.27C793.803 396.334 803.552 395.986 811.062 390.25C816.313 384.974 817.189 380.327 817.438 373.062C817.247 365.258 815.619 360.947 810.5 355.188C802.235 349.052 790.509 349.608 780.75 349.812C774.439 349.905 774.439 349.905 768 350Z" fill="#241F20"/>
<path d="M1168 340C1188.13 340 1208.26 340 1229 340C1229 343.3 1229 346.6 1229 350C1212.83 350 1196.66 350 1180 350C1180 363.86 1180 377.72 1180 392C1194.52 392 1209.04 392 1224 392C1224 395.3 1224 398.6 1224 402C1209.48 402 1194.96 402 1180 402C1180 416.19 1180 430.38 1180 445C1196.17 445 1212.34 445 1229 445C1229 448.3 1229 451.6 1229 455C1208.87 455 1188.74 455 1168 455C1168 417.05 1168 379.1 1168 340Z" fill="#241F20"/>
<path d="M1422 340C1426.95 340 1431.9 340 1437 340C1446.24 358.48 1455.48 376.96 1465 396C1467.35 392.864 1469.01 390.229 1470.73 386.772C1471.51 385.211 1471.51 385.211 1472.3 383.619C1472.86 382.502 1473.41 381.385 1473.98 380.234C1474.55 379.086 1475.13 377.937 1475.72 376.754C1477.23 373.711 1478.75 370.666 1480.26 367.62C1481.8 364.508 1483.35 361.399 1484.9 358.289C1487.94 352.195 1490.97 346.098 1494 340C1498.95 340 1503.9 340 1509 340C1504.51 349.068 1499.95 358.097 1495.32 367.092C1493.92 369.812 1492.54 372.539 1491.16 375.271C1488.17 381.181 1485.23 386.899 1481.33 392.277C1468.55 410.533 1471.46 433.629 1472 455C1467.71 455 1463.42 455 1459 455C1459.05 453.083 1459.05 453.083 1459.1 451.126C1460.48 418.647 1460.48 418.647 1447.83 389.717C1444.5 384.783 1441.94 379.419 1439.28 374.108C1437.71 370.997 1436.11 367.903 1434.52 364.809C1433.92 363.648 1433.32 362.488 1432.71 361.292C1429.99 356.057 1427.23 350.85 1424.44 345.657C1422 341.103 1422 341.103 1422 340Z" fill="#241F20"/>
<path d="M360 172C360.988 172.866 361.975 173.732 362.993 174.624C365.562 176.83 368.177 178.906 370.916 180.898C384.145 190.594 399.682 202.124 402.58 219.178C404.369 235.693 402.945 252.553 401 269C399.519 267.701 399.519 267.701 398.008 266.376C395.438 264.17 392.823 262.094 390.084 260.102C376.856 250.406 361.318 238.876 358.421 221.822C356.632 205.307 358.056 188.447 360 172Z" fill="#B38F43"/>
<path d="M1338 340C1363.41 340 1388.82 340 1415 340C1415 343.3 1415 346.6 1415 350C1404.44 350 1393.88 350 1383 350C1383 384.65 1383 419.3 1383 455C1378.71 455 1374.42 455 1370 455C1370 420.35 1370 385.7 1370 350C1359.44 350 1348.88 350 1338 350C1338 346.7 1338 343.4 1338 340Z" fill="#241F20"/>
</svg>
